<svg width="35" height="35" viewBox="0 0 35 35" fill="none" xmlns="http://www.w3.org/2000/svg">
<path d="M17.5 0C7.8349 0 0 7.8349 0 17.5C0 27.1651 7.8349 35 17.5 35C27.1651 35 35 27.1651 35 17.5C35 7.8349 27.1651 0 17.5 0ZM24.6185 14.3354C24.6258 14.4849 24.6276 14.6344 24.6276 14.7802C24.6276 19.3375 21.1622 24.5893 14.8221 24.5893C12.9487 24.5924 11.1143 24.0544 9.53932 23.0398C9.80729 23.0727 10.0826 23.0854 10.3615 23.0854C11.9766 23.0854 13.4622 22.5367 14.6417 21.6107C13.9229 21.5966 13.2265 21.3586 12.6494 20.9298C12.0724 20.5011 11.6434 19.9031 11.4224 19.219C11.9386 19.3172 12.4703 19.2966 12.9773 19.1589C12.1972 19.0011 11.4957 18.5784 10.9917 17.9624C10.4876 17.3464 10.2122 16.5751 10.212 15.7792V15.7372C10.6768 15.9943 11.2091 16.151 11.7742 16.1693C11.0429 15.6824 10.5251 14.9346 10.3269 14.0786C10.1287 13.2227 10.2649 12.3234 10.7078 11.5646C11.5736 12.6292 12.6533 13.5001 13.8771 14.1209C15.1008 14.7417 16.4413 15.0986 17.8117 15.1685C17.6375 14.4289 17.7125 13.6526 18.025 12.96C18.3376 12.2675 18.8701 11.6976 19.54 11.339C20.2098 10.9804 20.9793 10.8531 21.729 10.977C22.4786 11.1009 23.1663 11.4689 23.6852 12.024C24.4566 11.8713 25.1963 11.5884 25.8727 11.1872C25.6156 11.9859 25.0773 12.6641 24.3578 13.0958C25.0411 13.0135 25.7084 12.8298 26.3375 12.5508C25.8754 13.2433 25.2932 13.8477 24.6185 14.3354Z" fill="white"/>
</svg>
