<svg width="40" height="30" viewBox="0 0 40 30" fill="none" xmlns="http://www.w3.org/2000/svg">
<path d="M39.086 4.68375C40 8.025 40 15 40 15C40 15 40 21.975 39.086 25.3163C38.578 27.1631 37.092 28.6163 35.21 29.1075C31.792 30 20 30 20 30C20 30 8.214 30 4.79 29.1075C2.9 28.6087 1.416 27.1575 0.914 25.3163C5.96046e-08 21.975 0 15 0 15C0 15 5.96046e-08 8.025 0.914 4.68375C1.422 2.83688 2.908 1.38375 4.79 0.8925C8.214 -3.35276e-07 20 0 20 0C20 0 31.792 -3.35276e-07 35.21 0.8925C37.1 1.39125 38.584 2.8425 39.086 4.68375ZM16 21.5625L28 15L16 8.4375V21.5625Z" fill="white"/>
</svg>
